G04 #@! TF.FileFunction,Copper,L2,Bot,Signal*
%FSLAX46Y46*%
G04 Gerber Fmt 4.6, Leading zero omitted, Abs format (unit mm)*
G04 Created by KiCad (PCBNEW 4.0.2-stable) date Dimanche 29 mai 2016 01:33:30*
%MOMM*%
G01*
G04 APERTURE LIST*
%ADD10C,0.100000*%
%ADD11R,1.250000X1.500000*%
%ADD12R,1.727200X1.727200*%
%ADD13O,1.727200X1.727200*%
%ADD14C,0.889000*%
%ADD15C,0.254000*%
G04 APERTURE END LIST*
D10*
D11*
X123600000Y-72450000D03*
X123600000Y-69950000D03*
X123600000Y-75750000D03*
X123600000Y-78250000D03*
D12*
X126925000Y-78675000D03*
D13*
X129465000Y-78675000D03*
X126925000Y-76135000D03*
X129465000Y-76135000D03*
X126925000Y-73595000D03*
X129465000Y-73595000D03*
X126925000Y-71055000D03*
X129465000Y-71055000D03*
D14*
X121787200Y-77195000D03*
D15*
X123600000Y-72450000D02*
X123600000Y-75750000D01*
X126925000Y-78675000D02*
X125680100Y-78675000D01*
X123600000Y-75750000D02*
X124606300Y-75750000D01*
X124606300Y-77601200D02*
X125680100Y-78675000D01*
X124606300Y-75750000D02*
X124606300Y-77601200D01*
X122593700Y-77195000D02*
X121787200Y-77195000D01*
X124606300Y-73117700D02*
X124606300Y-69950000D01*
X126353600Y-74865000D02*
X124606300Y-73117700D01*
X127476400Y-74865000D02*
X126353600Y-74865000D01*
X128220100Y-75608700D02*
X127476400Y-74865000D01*
X128220100Y-76652100D02*
X128220100Y-75608700D01*
X128998100Y-77430100D02*
X128220100Y-76652100D01*
X129465000Y-77430100D02*
X128998100Y-77430100D01*
X129465000Y-78675000D02*
X129465000Y-77430100D01*
X123600000Y-69950000D02*
X123976100Y-69950000D01*
X123976100Y-69950000D02*
X124606300Y-69950000D01*
X123600000Y-78250000D02*
X122593700Y-78250000D01*
X122593700Y-71332400D02*
X122593700Y-77195000D01*
X123976100Y-69950000D02*
X122593700Y-71332400D01*
X122593700Y-77195000D02*
X122593700Y-78250000D01*
M02*
